<?xml version="1.0" encoding="UTF-8"?>
<svg width="288px" height="104px" viewBox="0 0 288 104" version="1.1" xmlns="http://www.w3.org/2000/svg" xmlns:xlink="http://www.w3.org/1999/xlink">
    <!-- Generator: Sketch 52.2 (67145) - http://www.bohemiancoding.com/sketch -->
    <title>logov2</title>
    <desc>Created with Sketch.</desc>
    <g id="Page-5" stroke="none" stroke-width="1" fill="none" fill-rule="evenodd">
        <g id="logov2" transform="translate(-10.000000, -22.000000)">
            <g id="Group-3" fill="#AF835C" font-family="Optima-Regular, Optima" font-weight="normal" stroke="#91765E" stroke-width="0.3">
                <text id="M" font-size="102">
                    <tspan x="211" y="98">M</tspan>
                </text>
                <text id="D" font-size="117">
                    <tspan x="0" y="109">D</tspan>
                </text>
                <text id="P" font-size="102">
                    <tspan x="99" y="103">P</tspan>
                </text>
                <text id="A" font-size="102">
                    <tspan x="144" y="94">A</tspan>
                </text>
                <text id="I" font-size="102">
                    <tspan x="79" y="95">I</tspan>
                </text>
            </g>
            <g id="Group-2" transform="translate(77.000000, 95.000000)" fill="#AF835C" stroke="#A99878" stroke-width="0.3">
                <circle id="Oval" cx="41.6084521" cy="21" r="5"></circle>
                <circle id="Oval" cx="123" cy="25" r="5"></circle>
                <rect id="Rectangle" x="66.15" y="16.15" width="17.7" height="9.7" rx="4.85"></rect>
                <polygon id="Polygon" points="110 0 117.608452 5.52786405 114.702282 14.472136 105.297718 14.472136 102.391548 5.52786405"></polygon>
                <polygon id="Polygon" points="154 4 161.608452 9.52786405 158.702282 18.472136 149.297718 18.472136 146.391548 9.52786405"></polygon>
                <polygon id="Triangle" stroke-linecap="round" stroke-linejoin="round" points="8.71690426 12 17.2169043 27.8666667 0.216904261 27.8666667"></polygon>
            </g>
            <g id="Group" transform="translate(97.000000, 104.000000)" fill="#B45555" stroke="#D2B69D" stroke-linecap="square">
                <path d="M0,12.5 L13.5,12.5" id="Line-2"></path>
                <path d="M29.6084521,12.5 L43.1084521,12.5" id="Line-2" transform="translate(36.358452, 12.500000) rotate(2.000000) translate(-36.358452, -12.500000) "></path>
                <path d="M67,16.5 L92.5,16" id="Line-2" transform="translate(80.000000, 16.000000) rotate(2.000000) translate(-80.000000, -16.000000) "></path>
                <path d="M65,6.5 L80.3915479,1.5" id="Line-2" transform="translate(73.000000, 4.000000) rotate(2.000000) translate(-73.000000, -4.000000) "></path>
                <path d="M110.108452,14.5 L125.391548,7.5" id="Line-2" transform="translate(118.108452, 11.000000) rotate(2.000000) translate(-118.108452, -11.000000) "></path>
            </g>
        </g>
    </g>
</svg>